<svg xmlns="http://www.w3.org/2000/svg" xmlns:xlink="http://www.w3.org/1999/xlink" xmlns:lucid="lucid" width="1401" height="849"><g transform="translate(-159.5 240.5)" lucid:page-tab-id="0_0"><path d="M0-500h2000v1500H0z" fill="#fff"/><path d="M680 226a6 6 0 0 1 6-6h348a6 6 0 0 1 6 6v356a6 6 0 0 1-6 6H686a6 6 0 0 1-6-6z" stroke="#3a414a" fill="#fff"/><path d="M680 256.8h360M680 358.3h360" stroke="#3a414a" fill="none"/><use xlink:href="#a" transform="matrix(1,0,0,1,688,228) translate(145.0611111111111 13.966666666666667)"/><use xlink:href="#b" transform="matrix(1,0,0,1,692,264.8) translate(0 25.22222222222222)"/><use xlink:href="#c" transform="matrix(1,0,0,1,692,264.8) translate(10.814814814814817 25.22222222222222)"/><use xlink:href="#d" transform="matrix(1,0,0,1,692,264.8) translate(76.88888888888889 25.22222222222222)"/><use xlink:href="#b" transform="matrix(1,0,0,1,692,264.8) translate(0 46.55555555555556)"/><use xlink:href="#e" transform="matrix(1,0,0,1,692,264.8) translate(10.814814814814817 46.55555555555556)"/><use xlink:href="#f" transform="matrix(1,0,0,1,692,264.8) translate(76.88888888888889 46.55555555555556)"/><use xlink:href="#b" transform="matrix(1,0,0,1,692,264.8) translate(0 67.8888888888889)"/><use xlink:href="#g" transform="matrix(1,0,0,1,692,264.8) translate(10.814814814814817 67.8888888888889)"/><use xlink:href="#h" transform="matrix(1,0,0,1,692,264.8) translate(114.41975308641977 67.8888888888889)"/><use xlink:href="#i" transform="matrix(1,0,0,1,692,366.3) translate(0 25.222222222222193)"/><use xlink:href="#j" transform="matrix(1,0,0,1,692,366.3) translate(15.308641975308644 25.222222222222193)"/><use xlink:href="#k" transform="matrix(1,0,0,1,692,366.3) translate(76.39506172839508 25.222222222222193)"/><use xlink:href="#i" transform="matrix(1,0,0,1,692,366.3) translate(0 46.55555555555553)"/><use xlink:href="#l" transform="matrix(1,0,0,1,692,366.3) translate(15.308641975308644 46.55555555555553)"/><use xlink:href="#m" transform="matrix(1,0,0,1,692,366.3) translate(91.20987654320989 46.55555555555553)"/><use xlink:href="#i" transform="matrix(1,0,0,1,692,366.3) translate(0 67.88888888888887)"/><use xlink:href="#n" transform="matrix(1,0,0,1,692,366.3) translate(15.308641975308644 67.88888888888887)"/><use xlink:href="#o" transform="matrix(1,0,0,1,692,366.3) translate(224.29629629629633 67.88888888888887)"/><use xlink:href="#p" transform="matrix(1,0,0,1,692,366.3) translate(286.37037037037044 67.88888888888887)"/><use xlink:href="#i" transform="matrix(1,0,0,1,692,366.3) translate(0 89.2222222222222)"/><use xlink:href="#q" transform="matrix(1,0,0,1,692,366.3) translate(15.308641975308644 89.2222222222222)"/><use xlink:href="#o" transform="matrix(1,0,0,1,692,366.3) translate(124.64197530864199 89.2222222222222)"/><use xlink:href="#r" transform="matrix(1,0,0,1,692,366.3) translate(186.71604938271608 89.2222222222222)"/><use xlink:href="#i" transform="matrix(1,0,0,1,692,366.3) translate(0 110.55555555555554)"/><use xlink:href="#s" transform="matrix(1,0,0,1,692,366.3) translate(15.308641975308644 110.55555555555554)"/><use xlink:href="#t" transform="matrix(1,0,0,1,692,366.3) translate(97.13580246913581 110.55555555555554)"/><use xlink:href="#i" transform="matrix(1,0,0,1,692,366.3) translate(0 131.88888888888889)"/><use xlink:href="#u" transform="matrix(1,0,0,1,692,366.3) translate(15.308641975308644 131.88888888888889)"/><use xlink:href="#v" transform="matrix(1,0,0,1,692,366.3) translate(170.8641975308642 131.88888888888889)"/><use xlink:href="#i" transform="matrix(1,0,0,1,692,366.3) translate(0 153.22222222222223)"/><use xlink:href="#w" transform="matrix(1,0,0,1,692,366.3) translate(15.308641975308644 153.22222222222223)"/><use xlink:href="#o" transform="matrix(1,0,0,1,692,366.3) translate(148.29629629629633 153.22222222222223)"/><use xlink:href="#x" transform="matrix(1,0,0,1,692,366.3) translate(210.3703703703704 153.22222222222223)"/><use xlink:href="#i" transform="matrix(1,0,0,1,692,366.3) translate(0 174.55555555555557)"/><use xlink:href="#y" transform="matrix(1,0,0,1,692,366.3) translate(15.308641975308644 174.55555555555557)"/><use xlink:href="#z" transform="matrix(1,0,0,1,692,366.3) translate(181.9259259259259 174.55555555555557)"/><use xlink:href="#i" transform="matrix(1,0,0,1,692,366.3) translate(0 195.8888888888889)"/><use xlink:href="#A" transform="matrix(1,0,0,1,692,366.3) translate(15.308641975308644 195.8888888888889)"/><use xlink:href="#B" transform="matrix(1,0,0,1,692,366.3) translate(159.20987654320987 195.8888888888889)"/><path d="M180-214a6 6 0 0 1 6-6h348a6 6 0 0 1 6 6V12a6 6 0 0 1-6 6H186a6 6 0 0 1-6-6z" stroke="#3a414a" fill="#fff"/><path d="M180-161.6h360" stroke="#3a414a" fill="none"/><g><use xlink:href="#C" transform="matrix(1,0,0,1,188,-212) translate(113.57499999999999 14.699999999999998)"/><use xlink:href="#D" transform="matrix(1,0,0,1,188,-212) translate(99.44074074074074 35.766666666666666)"/></g><g><use xlink:href="#E" transform="matrix(1,0,0,1,192,-153.6) translate(0 64.66666666666667)"/><use xlink:href="#F" transform="matrix(1,0,0,1,192,-153.6) translate(14.925925925925927 64.66666666666667)"/><use xlink:href="#G" transform="matrix(1,0,0,1,192,-153.6) translate(74.48518518518519 64.66666666666667)"/><use xlink:href="#E" transform="matrix(1,0,0,1,192,-153.6) translate(0 85.46666666666667)"/><use xlink:href="#H" transform="matrix(1,0,0,1,192,-153.6) translate(14.925925925925927 85.46666666666667)"/><use xlink:href="#G" transform="matrix(1,0,0,1,192,-153.6) translate(88.92962962962962 85.46666666666667)"/><use xlink:href="#E" transform="matrix(1,0,0,1,192,-153.6) translate(0 106.26666666666668)"/><use xlink:href="#I" transform="matrix(1,0,0,1,192,-153.6) translate(14.925925925925927 106.26666666666668)"/><use xlink:href="#J" transform="matrix(1,0,0,1,192,-153.6) translate(218.6888888888889 106.26666666666668)"/><use xlink:href="#K" transform="matrix(1,0,0,1,192,-153.6) translate(279.2111111111111 106.26666666666668)"/></g><path d="M680-214a6 6 0 0 1 6-6h348a6 6 0 0 1 6 6V12a6 6 0 0 1-6 6H686a6 6 0 0 1-6-6z" stroke="#3a414a" fill="#fff"/><path d="M680-161.6h360" stroke="#3a414a" fill="none"/><g><use xlink:href="#C" transform="matrix(1,0,0,1,688,-212) translate(113.57499999999999 14.699999999999998)"/><use xlink:href="#L" transform="matrix(1,0,0,1,688,-212) translate(98.4537037037037 35.766666666666666)"/></g><g><use xlink:href="#E" transform="matrix(1,0,0,1,692,-153.6) translate(0 64.66666666666667)"/><use xlink:href="#M" transform="matrix(1,0,0,1,692,-153.6) translate(14.925925925925927 64.66666666666667)"/><use xlink:href="#J" transform="matrix(1,0,0,1,692,-153.6) translate(121.52592592592593 64.66666666666667)"/><use xlink:href="#G" transform="matrix(1,0,0,1,692,-153.6) translate(182.04814814814816 64.66666666666667)"/><use xlink:href="#E" transform="matrix(1,0,0,1,692,-153.6) translate(0 85.46666666666667)"/><use xlink:href="#N" transform="matrix(1,0,0,1,692,-153.6) translate(14.925925925925927 85.46666666666667)"/><use xlink:href="#G" transform="matrix(1,0,0,1,692,-153.6) translate(94.7074074074074 85.46666666666667)"/><use xlink:href="#E" transform="matrix(1,0,0,1,692,-153.6) translate(0 106.26666666666668)"/><use xlink:href="#O" transform="matrix(1,0,0,1,692,-153.6) translate(14.925925925925927 106.26666666666668)"/><use xlink:href="#K" transform="matrix(1,0,0,1,692,-153.6) translate(166.5925925925926 106.26666666666668)"/></g><path d="M1180-214a6 6 0 0 1 6-6h348a6 6 0 0 1 6 6V12a6 6 0 0 1-6 6h-348a6 6 0 0 1-6-6z" stroke="#3a414a" fill="#fff"/><path d="M1180-161.6h360" stroke="#3a414a" fill="none"/><g><use xlink:href="#C" transform="matrix(1,0,0,1,1188,-212) translate(113.57499999999999 14.699999999999998)"/><use xlink:href="#P" transform="matrix(1,0,0,1,1188,-212) translate(100.33148148148149 35.766666666666666)"/></g><g><use xlink:href="#E" transform="matrix(1,0,0,1,1192,-153.6) translate(0 64.66666666666667)"/><use xlink:href="#Q" transform="matrix(1,0,0,1,1192,-153.6) translate(14.925925925925927 64.66666666666667)"/><use xlink:href="#J" transform="matrix(1,0,0,1,1192,-153.6) translate(144.5888888888889 64.66666666666667)"/><use xlink:href="#G" transform="matrix(1,0,0,1,1192,-153.6) translate(205.11111111111114 64.66666666666667)"/><use xlink:href="#E" transform="matrix(1,0,0,1,1192,-153.6) translate(0 85.46666666666667)"/><use xlink:href="#R" transform="matrix(1,0,0,1,1192,-153.6) translate(14.925925925925927 85.46666666666667)"/><use xlink:href="#G" transform="matrix(1,0,0,1,1192,-153.6) translate(177.3777777777778 85.46666666666667)"/><use xlink:href="#E" transform="matrix(1,0,0,1,1192,-153.6) translate(0 106.26666666666668)"/><use xlink:href="#S" transform="matrix(1,0,0,1,1192,-153.6) translate(14.925925925925927 106.26666666666668)"/><use xlink:href="#K" transform="matrix(1,0,0,1,1192,-153.6) translate(155.22962962962964 106.26666666666668)"/></g><path d="M860 219v-2.02m0-4.03v-4.03m0-4.04v-4.03m0-4.04v-4.02m0-4.04v-4.03m0-4.02v-4.04m0-4.03v-4.03m0-4.03v-4.03m0-4.03v-4.03m0-4.04v-4.03m0-4.03v-4.04m0-4.03v-4.04m0-4.03v-4.03m0-4.04v-4.03m0-4.04v-4.03m0-4.03v-4.04m0-4.03V87.9m0-4.04v-4.04m0-4.03v-4.04m0-4.04V63.7m0-4.05v-4.03m0-4.03v-4.05m0-4.03V41.5" stroke="#3a414a" fill="none"/><path d="M860.5 219.5h-1v-.5h1z" stroke="#3a414a" stroke-width=".05" fill="#3a414a"/><path d="M860 19.48L872.73 41h-25.46z" stroke="#3a414a" fill="#fff"/><path d="M679 240h-2m-4.02 0h-4m-4.02 0h-4.02m-4 0h-4.02m-4.02 0h-4m-4.02 0h-4m-4.03 0h-4m-4.02 0h-4.02m-4 0h-4m-4.02 0h-4.02m-4 0h-4.02m-4.02 0h-4m-4.02 0h-4m-4.03 0h-4m-4.02 0h-4m-4.03 0h-4m-4.02 0h-4.02m-4 0h-4.02m-4 0h-4.03m-4 0h-4.02m-4 0h-4.02m-4 0h-4.03m-4 0h-4.02m-4 0h-4.03m-4 0h-4.02m-4 0h-4.03m-4 0h-4.02m-4.02 0h-4m-4 0h-4.02m-4.02 0h-4m-4.02 0h-4.02m-4 0h-4.02m-4 0h-4.03m-4 0h-4.02m-4 0h-4.03m-4 0h-4.02m-4.02 0h-4m-4.02 0h-4m-4.03 0h-4m-4.02 0h-2l-.94-.07-.9-.22-.45-.17m-3.23-3.24l-.18-.45-.23-.9-.07-.95v-2m0-4.02v-4m0-4.02v-4m0-4.02v-4m0-4.02v-4m0-4.02v-4m0-4.02v-4m0-4.02v-4m0-4.02v-4m0-4.02v-4m0-4.02v-4m0-4.02v-4m0-4.02v-4m0-4.02v-4.02m0-4v-4.02m0-4v-4.02m0-4v-4.02m0-4v-4.02m0-4V87.6m0-4V79.6m0-4v-4.02m0-4v-4.02m0-4v-4.02m0-4V47.5m0-4V41.5" stroke="#3a414a" fill="none"/><path d="M679.5 240.5h-.5v-1h.5z" stroke="#3a414a" stroke-width=".05" fill="#3a414a"/><path d="M360 19.48L372.73 41h-25.46z" stroke="#3a414a" fill="#fff"/><path d="M1041 242.67h2m4.02 0h4m4.03 0h4m4.02 0h4m4.03 0h4m4.02 0h4.02m4 0h4.02m4 0h4.03m4 0h4m4.02 0h4.02m4 0h4.02m4.02 0h4m4.02 0h4m4.03 0h4m4.02 0h4.02m4 0h4.02m4 0h4.02m4 0h4.02m4 0h4.03m4 0h4.02m4 0h4.02m4 0h4.03m4 0h4.02m4 0h4.03m4 0h4.02m4.02 0h4m4.02 0h4m4.03 0h4m4 0h4.02m4.02 0h4m4.02 0h4.02m4 0h4.02m4 0h4.03m4 0h4.02m4.02 0h4m4.02 0h4m4.02 0h4m4.02 0h4m4.03 0h4m4.02 0h2l.94-.08.9-.23.45-.18m3.23-3.24l.18-.44.23-.92.07-.93v-2.04m0-4.06v-4.07m0-4.06v-4.07m0-4.07v-4.06m0-4.07v-4.06m0-4.06v-4.07m0-4.06v-4.06m0-4.06v-4.07m0-4.06v-4.06m0-4.07v-4.05m0-4.07v-4.06m0-4.07v-4.07m0-4.06v-4.07m0-4.06v-4.08m0-4.07v-4.06m0-4.08v-4.06m0-4.07v-4.08m0-4.06V96.4m0-4.08v-4.06m0-4.07v-4.07m0-4.07V72m0-4.07v-4.07m0-4.06v-4.07m0-4.06V47.6m0-4.07V41.5" stroke="#3a414a" fill="none"/><path d="M1041 243.17h-.5v-1h.5z" stroke="#3a414a" stroke-width=".05" fill="#3a414a"/><path d="M1360 19.48L1372.73 41h-25.46z" stroke="#3a414a" fill="#fff"/><defs><path d="M24-231v-30h32v30H24zM24 0v-190h32V0H24" id="T"/><path d="M30-248c87 1 191-15 191 75 0 78-77 80-158 76V0H30v-248zm33 125c57 0 124 11 124-50 0-59-68-47-124-48v98" id="U"/><path d="M106-169C34-169 62-67 57 0H25v-261h32l-1 103c12-21 28-36 61-36 89 0 53 116 60 194h-32v-121c2-32-8-49-39-48" id="V"/><path d="M100-194c62-1 85 37 85 99 1 63-27 99-86 99S16-35 15-95c0-66 28-99 85-99zM99-20c44 1 53-31 53-75 0-43-8-75-51-75s-53 32-53 75 10 74 51 75" id="W"/><path d="M117-194c89-4 53 116 60 194h-32v-121c0-31-8-49-39-48C34-167 62-67 57 0H25l-1-190h30c1 10-1 24 2 32 11-22 29-35 61-36" id="X"/><path d="M100-194c63 0 86 42 84 106H49c0 40 14 67 53 68 26 1 43-12 49-29l28 8c-11 28-37 45-77 45C44 4 14-33 15-96c1-61 26-98 85-98zm52 81c6-60-76-77-97-28-3 7-6 17-6 28h103" id="Y"/><g id="a"><use transform="matrix(0.048148148148148155,0,0,0.048148148148148155,0,0)" xlink:href="#T"/><use transform="matrix(0.048148148148148155,0,0,0.048148148148148155,3.8037037037037043,0)" xlink:href="#U"/><use transform="matrix(0.048148148148148155,0,0,0.048148148148148155,15.359259259259261,0)" xlink:href="#V"/><use transform="matrix(0.048148148148148155,0,0,0.048148148148148155,24.988888888888894,0)" xlink:href="#W"/><use transform="matrix(0.048148148148148155,0,0,0.048148148148148155,34.61851851851853,0)" xlink:href="#X"/><use transform="matrix(0.048148148148148155,0,0,0.048148148148148155,44.24814814814816,0)" xlink:href="#Y"/></g><path fill="#3a414a" d="M16-82v-28h88v28H16" id="Z"/><use transform="matrix(0.04938271604938272,0,0,0.04938271604938272,0,0)" xlink:href="#Z" id="b"/><path fill="#3a414a" d="M210-169c-67 3-38 105-44 169h-31v-121c0-29-5-50-35-48C34-165 62-65 56 0H25l-1-190h30c1 10-1 24 2 32 10-44 99-50 107 0 11-21 27-35 58-36 85-2 47 119 55 194h-31v-121c0-29-5-49-35-48" id="aa"/><path fill="#3a414a" d="M85 4C-4 8 31-112 24-190h32v120c0 31 7 50 39 49 72-2 45-101 50-169h31l1 190h-30c-1-10 1-25-2-33-11 22-28 36-60 37zM73-211c8-23 27-35 38-54h36v5l-58 49H73" id="ab"/><path fill="#3a414a" d="M135-143c-3-34-86-38-87 0 15 53 115 12 119 90S17 21 10-45l28-5c4 36 97 45 98 0-10-56-113-15-118-90-4-57 82-63 122-42 12 7 21 19 24 35" id="ac"/><path fill="#3a414a" d="M24-231v-30h32v30H24zM24 0v-190h32V0H24" id="ad"/><path fill="#3a414a" d="M96-169c-40 0-48 33-48 73s9 75 48 75c24 0 41-14 43-38l32 2c-6 37-31 61-74 61-59 0-76-41-82-99-10-93 101-131 147-64 4 7 5 14 7 22l-32 3c-4-21-16-35-41-35" id="ae"/><path fill="#3a414a" d="M141-36C126-15 110 5 73 4 37 3 15-17 15-53c-1-64 63-63 125-63 3-35-9-54-41-54-24 1-41 7-42 31l-33-3c5-37 33-52 76-52 45 0 72 20 72 64v82c-1 20 7 32 28 27v20c-31 9-61-2-59-35zM48-53c0 20 12 33 32 33 41-3 63-29 60-74-43 2-92-5-92 41" id="af"/><path fill="#3a414a" d="M33-154v-36h34v36H33zM33 0v-36h34V0H33" id="ag"/><g id="c"><use transform="matrix(0.04938271604938272,0,0,0.04938271604938272,0,0)" xlink:href="#aa"/><use transform="matrix(0.04938271604938272,0,0,0.04938271604938272,14.765432098765434,0)" xlink:href="#ab"/><use transform="matrix(0.04938271604938272,0,0,0.04938271604938272,24.641975308641978,0)" xlink:href="#ac"/><use transform="matrix(0.04938271604938272,0,0,0.04938271604938272,33.53086419753087,0)" xlink:href="#ad"/><use transform="matrix(0.04938271604938272,0,0,0.04938271604938272,37.4320987654321,0)" xlink:href="#ae"/><use transform="matrix(0.04938271604938272,0,0,0.04938271604938272,46.32098765432099,0)" xlink:href="#af"/><use transform="matrix(0.04938271604938272,0,0,0.04938271604938272,56.19753086419754,0)" xlink:href="#ag"/></g><path fill="#3a414a" d="M185-189c-5-48-123-54-124 2 14 75 158 14 163 119 3 78-121 87-175 55-17-10-28-26-33-46l33-7c5 56 141 63 141-1 0-78-155-14-162-118-5-82 145-84 179-34 5 7 8 16 11 25" id="ah"/><path fill="#3a414a" d="M59-47c-2 24 18 29 38 22v24C64 9 27 4 27-40v-127H5v-23h24l9-43h21v43h35v23H59v120" id="ai"/><path fill="#3a414a" d="M114-163C36-179 61-72 57 0H25l-1-190h30c1 12-1 29 2 39 6-27 23-49 58-41v29" id="aj"/><path fill="#3a414a" d="M117-194c89-4 53 116 60 194h-32v-121c0-31-8-49-39-48C34-167 62-67 57 0H25l-1-190h30c1 10-1 24 2 32 11-22 29-35 61-36" id="ak"/><path fill="#3a414a" d="M177-190C167-65 218 103 67 71c-23-6-38-20-44-43l32-5c15 47 100 32 89-28v-30C133-14 115 1 83 1 29 1 15-40 15-95c0-56 16-97 71-98 29-1 48 16 59 35 1-10 0-23 2-32h30zM94-22c36 0 50-32 50-73 0-42-14-75-50-75-39 0-46 34-46 75s6 73 46 73" id="al"/><g id="d"><use transform="matrix(0.04938271604938272,0,0,0.04938271604938272,0,0)" xlink:href="#ah"/><use transform="matrix(0.04938271604938272,0,0,0.04938271604938272,11.851851851851853,0)" xlink:href="#ai"/><use transform="matrix(0.04938271604938272,0,0,0.04938271604938272,16.790123456790127,0)" xlink:href="#aj"/><use transform="matrix(0.04938271604938272,0,0,0.04938271604938272,22.66666666666667,0)" xlink:href="#ad"/><use transform="matrix(0.04938271604938272,0,0,0.04938271604938272,26.567901234567902,0)" xlink:href="#ak"/><use transform="matrix(0.04938271604938272,0,0,0.04938271604938272,36.44444444444445,0)" xlink:href="#al"/></g><path fill="#3a414a" d="M24 0v-261h32V0H24" id="am"/><path fill="#3a414a" d="M100-194c62-1 85 37 85 99 1 63-27 99-86 99S16-35 15-95c0-66 28-99 85-99zM99-20c44 1 53-31 53-75 0-43-8-75-51-75s-53 32-53 75 10 74 51 75" id="an"/><g id="e"><use transform="matrix(0.04938271604938272,0,0,0.04938271604938272,0,0)" xlink:href="#am"/><use transform="matrix(0.04938271604938272,0,0,0.04938271604938272,3.901234567901235,0)" xlink:href="#ad"/><use transform="matrix(0.04938271604938272,0,0,0.04938271604938272,7.80246913580247,0)" xlink:href="#al"/><use transform="matrix(0.04938271604938272,0,0,0.04938271604938272,17.679012345679013,0)" xlink:href="#af"/><use transform="matrix(0.04938271604938272,0,0,0.04938271604938272,27.555555555555557,0)" xlink:href="#ae"/><use transform="matrix(0.04938271604938272,0,0,0.04938271604938272,36.44444444444444,0)" xlink:href="#af"/><use transform="matrix(0.04938271604938272,0,0,0.04938271604938272,46.32098765432099,0)" xlink:href="#an"/><use transform="matrix(0.04938271604938272,0,0,0.04938271604938272,56.19753086419754,0)" xlink:href="#ag"/></g><g id="f"><use transform="matrix(0.04938271604938272,0,0,0.04938271604938272,0,0)" xlink:href="#ah"/><use transform="matrix(0.04938271604938272,0,0,0.04938271604938272,11.851851851851853,0)" xlink:href="#ai"/><use transform="matrix(0.04938271604938272,0,0,0.04938271604938272,16.790123456790127,0)" xlink:href="#aj"/><use transform="matrix(0.04938271604938272,0,0,0.04938271604938272,22.66666666666667,0)" xlink:href="#ad"/><use transform="matrix(0.04938271604938272,0,0,0.04938271604938272,26.567901234567902,0)" xlink:href="#ak"/><use transform="matrix(0.04938271604938272,0,0,0.04938271604938272,36.44444444444445,0)" xlink:href="#al"/></g><path fill="#3a414a" d="M115-194c55 1 70 41 70 98S169 2 115 4C84 4 66-9 55-30l1 105H24l-1-265h31l2 30c10-21 28-34 59-34zm-8 174c40 0 45-34 45-75s-6-73-45-74c-42 0-51 32-51 76 0 43 10 73 51 73" id="ao"/><path fill="#3a414a" d="M205 0l-28-72H64L36 0H1l101-248h38L239 0h-34zm-38-99l-47-123c-12 45-31 82-46 123h93" id="ap"/><path fill="#3a414a" d="M84 4C-5 8 30-112 23-190h32v120c0 31 7 50 39 49 72-2 45-101 50-169h31l1 190h-30c-1-10 1-25-2-33-11 22-28 36-60 37" id="aq"/><g id="g"><use transform="matrix(0.04938271604938272,0,0,0.04938271604938272,0,0)" xlink:href="#ao"/><use transform="matrix(0.04938271604938272,0,0,0.04938271604938272,9.876543209876544,0)" xlink:href="#af"/><use transform="matrix(0.04938271604938272,0,0,0.04938271604938272,19.75308641975309,0)" xlink:href="#al"/><use transform="matrix(0.04938271604938272,0,0,0.04938271604938272,29.629629629629633,0)" xlink:href="#ad"/><use transform="matrix(0.04938271604938272,0,0,0.04938271604938272,33.53086419753087,0)" xlink:href="#ak"/><use transform="matrix(0.04938271604938272,0,0,0.04938271604938272,43.40740740740741,0)" xlink:href="#af"/><use transform="matrix(0.04938271604938272,0,0,0.04938271604938272,53.283950617283956,0)" xlink:href="#ap"/><use transform="matrix(0.04938271604938272,0,0,0.04938271604938272,65.13580246913581,0)" xlink:href="#ai"/><use transform="matrix(0.04938271604938272,0,0,0.04938271604938272,70.07407407407408,0)" xlink:href="#aq"/><use transform="matrix(0.04938271604938272,0,0,0.04938271604938272,79.95061728395062,0)" xlink:href="#af"/><use transform="matrix(0.04938271604938272,0,0,0.04938271604938272,89.82716049382717,0)" xlink:href="#am"/><use transform="matrix(0.04938271604938272,0,0,0.04938271604938272,93.7283950617284,0)" xlink:href="#ag"/></g><g id="h"><use transform="matrix(0.04938271604938272,0,0,0.04938271604938272,0,0)" xlink:href="#ah"/><use transform="matrix(0.04938271604938272,0,0,0.04938271604938272,11.851851851851853,0)" xlink:href="#ai"/><use transform="matrix(0.04938271604938272,0,0,0.04938271604938272,16.790123456790127,0)" xlink:href="#aj"/><use transform="matrix(0.04938271604938272,0,0,0.04938271604938272,22.66666666666667,0)" xlink:href="#ad"/><use transform="matrix(0.04938271604938272,0,0,0.04938271604938272,26.567901234567902,0)" xlink:href="#ak"/><use transform="matrix(0.04938271604938272,0,0,0.04938271604938272,36.44444444444445,0)" xlink:href="#al"/></g><path fill="#3a414a" d="M118-107v75H92v-75H18v-26h74v-75h26v75h74v26h-74" id="ar"/><use transform="matrix(0.04938271604938272,0,0,0.04938271604938272,0,0)" xlink:href="#ar" id="i"/><path fill="#3a414a" d="M87 75C49 33 22-17 22-94c0-76 28-126 65-167h31c-38 41-64 92-64 168S80 34 118 75H87" id="as"/><path fill="#3a414a" d="M33-261c38 41 65 92 65 168S71 34 33 75H2C39 34 66-17 66-93S39-220 2-261h31" id="at"/><g id="j"><use transform="matrix(0.04938271604938272,0,0,0.04938271604938272,0,0)" xlink:href="#ai"/><use transform="matrix(0.04938271604938272,0,0,0.04938271604938272,4.938271604938272,0)" xlink:href="#an"/><use transform="matrix(0.04938271604938272,0,0,0.04938271604938272,14.814814814814817,0)" xlink:href="#ae"/><use transform="matrix(0.04938271604938272,0,0,0.04938271604938272,23.703703703703706,0)" xlink:href="#af"/><use transform="matrix(0.04938271604938272,0,0,0.04938271604938272,33.580246913580254,0)" xlink:href="#aj"/><use transform="matrix(0.04938271604938272,0,0,0.04938271604938272,39.4567901234568,0)" xlink:href="#as"/><use transform="matrix(0.04938271604938272,0,0,0.04938271604938272,45.33333333333334,0)" xlink:href="#at"/><use transform="matrix(0.04938271604938272,0,0,0.04938271604938272,51.209876543209894,0)" xlink:href="#ag"/></g><path fill="#3a414a" d="M108 0H70L1-190h34L89-25l56-165h34" id="au"/><path fill="#3a414a" d="M85-194c31 0 48 13 60 33l-1-100h32l1 261h-30c-2-10 0-23-3-31C134-8 116 4 85 4 32 4 16-35 15-94c0-66 23-100 70-100zm9 24c-40 0-46 34-46 75 0 40 6 74 45 74 42 0 51-32 51-76 0-42-9-74-50-73" id="av"/><g id="k"><use transform="matrix(0.04938271604938272,0,0,0.04938271604938272,0,0)" xlink:href="#au"/><use transform="matrix(0.04938271604938272,0,0,0.04938271604938272,8.88888888888889,0)" xlink:href="#an"/><use transform="matrix(0.04938271604938272,0,0,0.04938271604938272,18.765432098765434,0)" xlink:href="#ad"/><use transform="matrix(0.04938271604938272,0,0,0.04938271604938272,22.666666666666668,0)" xlink:href="#av"/></g><g id="l"><use transform="matrix(0.04938271604938272,0,0,0.04938271604938272,0,0)" xlink:href="#ao"/><use transform="matrix(0.04938271604938272,0,0,0.04938271604938272,9.876543209876544,0)" xlink:href="#af"/><use transform="matrix(0.04938271604938272,0,0,0.04938271604938272,19.75308641975309,0)" xlink:href="#aq"/><use transform="matrix(0.04938271604938272,0,0,0.04938271604938272,29.629629629629633,0)" xlink:href="#ac"/><use transform="matrix(0.04938271604938272,0,0,0.04938271604938272,38.51851851851852,0)" xlink:href="#af"/><use transform="matrix(0.04938271604938272,0,0,0.04938271604938272,48.39506172839506,0)" xlink:href="#aj"/><use transform="matrix(0.04938271604938272,0,0,0.04938271604938272,54.27160493827161,0)" xlink:href="#as"/><use transform="matrix(0.04938271604938272,0,0,0.04938271604938272,60.14814814814815,0)" xlink:href="#at"/><use transform="matrix(0.04938271604938272,0,0,0.04938271604938272,66.0246913580247,0)" xlink:href="#ag"/></g><g id="m"><use transform="matrix(0.04938271604938272,0,0,0.04938271604938272,0,0)" xlink:href="#au"/><use transform="matrix(0.04938271604938272,0,0,0.04938271604938272,8.88888888888889,0)" xlink:href="#an"/><use transform="matrix(0.04938271604938272,0,0,0.04938271604938272,18.765432098765434,0)" xlink:href="#ad"/><use transform="matrix(0.04938271604938272,0,0,0.04938271604938272,22.666666666666668,0)" xlink:href="#av"/></g><path fill="#3a414a" d="M100-194c63 0 86 42 84 106H49c0 40 14 67 53 68 26 1 43-12 49-29l28 8c-11 28-37 45-77 45C44 4 14-33 15-96c1-61 26-98 85-98zm52 81c6-60-76-77-97-28-3 7-6 17-6 28h103" id="aw"/><path fill="#3a414a" d="M240 0l2-218c-23 76-54 145-80 218h-23L58-218 59 0H30v-248h44l77 211c21-75 51-140 76-211h43V0h-30" id="ax"/><g id="n"><use transform="matrix(0.04938271604938272,0,0,0.04938271604938272,0,0)" xlink:href="#ac"/><use transform="matrix(0.04938271604938272,0,0,0.04938271604938272,8.88888888888889,0)" xlink:href="#aw"/><use transform="matrix(0.04938271604938272,0,0,0.04938271604938272,18.765432098765434,0)" xlink:href="#am"/><use transform="matrix(0.04938271604938272,0,0,0.04938271604938272,22.666666666666668,0)" xlink:href="#aw"/><use transform="matrix(0.04938271604938272,0,0,0.04938271604938272,32.543209876543216,0)" xlink:href="#ae"/><use transform="matrix(0.04938271604938272,0,0,0.04938271604938272,41.4320987654321,0)" xlink:href="#ad"/><use transform="matrix(0.04938271604938272,0,0,0.04938271604938272,45.333333333333336,0)" xlink:href="#an"/><use transform="matrix(0.04938271604938272,0,0,0.04938271604938272,55.20987654320988,0)" xlink:href="#ak"/><use transform="matrix(0.04938271604938272,0,0,0.04938271604938272,65.08641975308643,0)" xlink:href="#af"/><use transform="matrix(0.04938271604938272,0,0,0.04938271604938272,74.96296296296298,0)" xlink:href="#aj"/><use transform="matrix(0.04938271604938272,0,0,0.04938271604938272,80.83950617283952,0)" xlink:href="#ax"/><use transform="matrix(0.04938271604938272,0,0,0.04938271604938272,95.60493827160495,0)" xlink:href="#aq"/><use transform="matrix(0.04938271604938272,0,0,0.04938271604938272,105.4814814814815,0)" xlink:href="#ac"/><use transform="matrix(0.04938271604938272,0,0,0.04938271604938272,114.37037037037038,0)" xlink:href="#ad"/><use transform="matrix(0.04938271604938272,0,0,0.04938271604938272,118.27160493827161,0)" xlink:href="#ae"/><use transform="matrix(0.04938271604938272,0,0,0.04938271604938272,127.16049382716051,0)" xlink:href="#af"/><use transform="matrix(0.04938271604938272,0,0,0.04938271604938272,137.03703703703707,0)" xlink:href="#as"/><use transform="matrix(0.04938271604938272,0,0,0.04938271604938272,142.9135802469136,0)" xlink:href="#aa"/><use transform="matrix(0.04938271604938272,0,0,0.04938271604938272,157.67901234567904,0)" xlink:href="#aq"/><use transform="matrix(0.04938271604938272,0,0,0.04938271604938272,167.5555555555556,0)" xlink:href="#ac"/><use transform="matrix(0.04938271604938272,0,0,0.04938271604938272,176.44444444444449,0)" xlink:href="#ad"/><use transform="matrix(0.04938271604938272,0,0,0.04938271604938272,180.34567901234573,0)" xlink:href="#ae"/><use transform="matrix(0.04938271604938272,0,0,0.04938271604938272,189.2345679012346,0)" xlink:href="#af"/><use transform="matrix(0.04938271604938272,0,0,0.04938271604938272,199.11111111111114,0)" xlink:href="#ag"/></g><g id="o"><use transform="matrix(0.04938271604938272,0,0,0.04938271604938272,0,0)" xlink:href="#ah"/><use transform="matrix(0.04938271604938272,0,0,0.04938271604938272,11.851851851851853,0)" xlink:href="#ai"/><use transform="matrix(0.04938271604938272,0,0,0.04938271604938272,16.790123456790127,0)" xlink:href="#aj"/><use transform="matrix(0.04938271604938272,0,0,0.04938271604938272,22.66666666666667,0)" xlink:href="#ad"/><use transform="matrix(0.04938271604938272,0,0,0.04938271604938272,26.567901234567902,0)" xlink:href="#ak"/><use transform="matrix(0.04938271604938272,0,0,0.04938271604938272,36.44444444444445,0)" xlink:href="#al"/><use transform="matrix(0.04938271604938272,0,0,0.04938271604938272,46.320987654320994,0)" xlink:href="#at"/><use transform="matrix(0.04938271604938272,0,0,0.04938271604938272,52.19753086419754,0)" xlink:href="#ag"/></g><g id="p"><use transform="matrix(0.04938271604938272,0,0,0.04938271604938272,0,0)" xlink:href="#au"/><use transform="matrix(0.04938271604938272,0,0,0.04938271604938272,8.88888888888889,0)" xlink:href="#an"/><use transform="matrix(0.04938271604938272,0,0,0.04938271604938272,18.765432098765434,0)" xlink:href="#ad"/><use transform="matrix(0.04938271604938272,0,0,0.04938271604938272,22.666666666666668,0)" xlink:href="#av"/></g><g id="q"><use transform="matrix(0.04938271604938272,0,0,0.04938271604938272,0,0)" xlink:href="#am"/><use transform="matrix(0.04938271604938272,0,0,0.04938271604938272,3.901234567901235,0)" xlink:href="#ad"/><use transform="matrix(0.04938271604938272,0,0,0.04938271604938272,7.80246913580247,0)" xlink:href="#al"/><use transform="matrix(0.04938271604938272,0,0,0.04938271604938272,17.679012345679013,0)" xlink:href="#af"/><use transform="matrix(0.04938271604938272,0,0,0.04938271604938272,27.555555555555557,0)" xlink:href="#aj"/><use transform="matrix(0.04938271604938272,0,0,0.04938271604938272,33.4320987654321,0)" xlink:href="#as"/><use transform="matrix(0.04938271604938272,0,0,0.04938271604938272,39.308641975308646,0)" xlink:href="#ak"/><use transform="matrix(0.04938271604938272,0,0,0.04938271604938272,49.18518518518519,0)" xlink:href="#aq"/><use transform="matrix(0.04938271604938272,0,0,0.04938271604938272,59.061728395061735,0)" xlink:href="#aa"/><use transform="matrix(0.04938271604938272,0,0,0.04938271604938272,73.82716049382717,0)" xlink:href="#aw"/><use transform="matrix(0.04938271604938272,0,0,0.04938271604938272,83.70370370370371,0)" xlink:href="#aj"/><use transform="matrix(0.04938271604938272,0,0,0.04938271604938272,89.58024691358025,0)" xlink:href="#an"/><use transform="matrix(0.04938271604938272,0,0,0.04938271604938272,99.4567901234568,0)" xlink:href="#ag"/></g><g id="r"><use transform="matrix(0.04938271604938272,0,0,0.04938271604938272,0,0)" xlink:href="#au"/><use transform="matrix(0.04938271604938272,0,0,0.04938271604938272,8.88888888888889,0)" xlink:href="#an"/><use transform="matrix(0.04938271604938272,0,0,0.04938271604938272,18.765432098765434,0)" xlink:href="#ad"/><use transform="matrix(0.04938271604938272,0,0,0.04938271604938272,22.666666666666668,0)" xlink:href="#av"/></g><g id="s"><use transform="matrix(0.04938271604938272,0,0,0.04938271604938272,0,0)" xlink:href="#af"/><use transform="matrix(0.04938271604938272,0,0,0.04938271604938272,9.876543209876544,0)" xlink:href="#ai"/><use transform="matrix(0.04938271604938272,0,0,0.04938271604938272,14.814814814814817,0)" xlink:href="#aw"/><use transform="matrix(0.04938271604938272,0,0,0.04938271604938272,24.69135802469136,0)" xlink:href="#ak"/><use transform="matrix(0.04938271604938272,0,0,0.04938271604938272,34.567901234567906,0)" xlink:href="#av"/><use transform="matrix(0.04938271604938272,0,0,0.04938271604938272,44.44444444444445,0)" xlink:href="#aw"/><use transform="matrix(0.04938271604938272,0,0,0.04938271604938272,54.320987654320994,0)" xlink:href="#aj"/><use transform="matrix(0.04938271604938272,0,0,0.04938271604938272,60.19753086419754,0)" xlink:href="#as"/><use transform="matrix(0.04938271604938272,0,0,0.04938271604938272,66.07407407407408,0)" xlink:href="#at"/><use transform="matrix(0.04938271604938272,0,0,0.04938271604938272,71.95061728395062,0)" xlink:href="#ag"/></g><g id="t"><use transform="matrix(0.04938271604938272,0,0,0.04938271604938272,0,0)" xlink:href="#au"/><use transform="matrix(0.04938271604938272,0,0,0.04938271604938272,8.88888888888889,0)" xlink:href="#an"/><use transform="matrix(0.04938271604938272,0,0,0.04938271604938272,18.765432098765434,0)" xlink:href="#ad"/><use transform="matrix(0.04938271604938272,0,0,0.04938271604938272,22.666666666666668,0)" xlink:href="#av"/></g><path fill="#3a414a" d="M212-179c-10-28-35-45-73-45-59 0-87 40-87 99 0 60 29 101 89 101 43 0 62-24 78-52l27 14C228-24 195 4 139 4 59 4 22-46 18-125c-6-104 99-153 187-111 19 9 31 26 39 46" id="ay"/><path fill="#3a414a" d="M137 0h-34L2-248h35l83 218 83-218h36" id="az"/><path fill="#3a414a" d="M9 0v-24l116-142H16v-24h144v24L44-24h123V0H9" id="aA"/><g id="u"><use transform="matrix(0.04938271604938272,0,0,0.04938271604938272,0,0)" xlink:href="#ad"/><use transform="matrix(0.04938271604938272,0,0,0.04938271604938272,3.901234567901235,0)" xlink:href="#ak"/><use transform="matrix(0.04938271604938272,0,0,0.04938271604938272,13.777777777777779,0)" xlink:href="#ad"/><use transform="matrix(0.04938271604938272,0,0,0.04938271604938272,17.679012345679013,0)" xlink:href="#ae"/><use transform="matrix(0.04938271604938272,0,0,0.04938271604938272,26.567901234567902,0)" xlink:href="#ad"/><use transform="matrix(0.04938271604938272,0,0,0.04938271604938272,30.46913580246914,0)" xlink:href="#af"/><use transform="matrix(0.04938271604938272,0,0,0.04938271604938272,40.345679012345684,0)" xlink:href="#aj"/><use transform="matrix(0.04938271604938272,0,0,0.04938271604938272,46.22222222222223,0)" xlink:href="#ay"/><use transform="matrix(0.04938271604938272,0,0,0.04938271604938272,59.01234567901235,0)" xlink:href="#an"/><use transform="matrix(0.04938271604938272,0,0,0.04938271604938272,68.8888888888889,0)" xlink:href="#aj"/><use transform="matrix(0.04938271604938272,0,0,0.04938271604938272,74.76543209876544,0)" xlink:href="#aj"/><use transform="matrix(0.04938271604938272,0,0,0.04938271604938272,80.64197530864199,0)" xlink:href="#aw"/><use transform="matrix(0.04938271604938272,0,0,0.04938271604938272,90.51851851851853,0)" xlink:href="#ad"/><use transform="matrix(0.04938271604938272,0,0,0.04938271604938272,94.41975308641977,0)" xlink:href="#an"/><use transform="matrix(0.04938271604938272,0,0,0.04938271604938272,104.29629629629633,0)" xlink:href="#az"/><use transform="matrix(0.04938271604938272,0,0,0.04938271604938272,115.16049382716051,0)" xlink:href="#an"/><use transform="matrix(0.04938271604938272,0,0,0.04938271604938272,125.03703703703705,0)" xlink:href="#aA"/><use transform="matrix(0.04938271604938272,0,0,0.04938271604938272,133.92592592592595,0)" xlink:href="#as"/><use transform="matrix(0.04938271604938272,0,0,0.04938271604938272,139.80246913580248,0)" xlink:href="#at"/><use transform="matrix(0.04938271604938272,0,0,0.04938271604938272,145.679012345679,0)" xlink:href="#ag"/></g><g id="v"><use transform="matrix(0.04938271604938272,0,0,0.04938271604938272,0,0)" xlink:href="#au"/><use transform="matrix(0.04938271604938272,0,0,0.04938271604938272,8.88888888888889,0)" xlink:href="#an"/><use transform="matrix(0.04938271604938272,0,0,0.04938271604938272,18.765432098765434,0)" xlink:href="#ad"/><use transform="matrix(0.04938271604938272,0,0,0.04938271604938272,22.666666666666668,0)" xlink:href="#av"/></g><path fill="#3a414a" d="M141 0L90-78 38 0H4l68-98-65-92h35l48 74 47-74h35l-64 92 68 98h-35" id="aB"/><path fill="#3a414a" d="M115-194c53 0 69 39 70 98 0 66-23 100-70 100C84 3 66-7 56-30L54 0H23l1-261h32v101c10-23 28-34 59-34zm-8 174c40 0 45-34 45-75 0-40-5-75-45-74-42 0-51 32-51 76 0 43 10 73 51 73" id="aC"/><path fill="#3a414a" d="M30-248c87 1 191-15 191 75 0 78-77 80-158 76V0H30v-248zm33 125c57 0 124 11 124-50 0-59-68-47-124-48v98" id="aD"/><g id="w"><use transform="matrix(0.04938271604938272,0,0,0.04938271604938272,0,0)" xlink:href="#aw"/><use transform="matrix(0.04938271604938272,0,0,0.04938271604938272,9.876543209876544,0)" xlink:href="#aB"/><use transform="matrix(0.04938271604938272,0,0,0.04938271604938272,18.765432098765434,0)" xlink:href="#ad"/><use transform="matrix(0.04938271604938272,0,0,0.04938271604938272,22.666666666666668,0)" xlink:href="#aC"/><use transform="matrix(0.04938271604938272,0,0,0.04938271604938272,32.543209876543216,0)" xlink:href="#ad"/><use transform="matrix(0.04938271604938272,0,0,0.04938271604938272,36.44444444444445,0)" xlink:href="#aj"/><use transform="matrix(0.04938271604938272,0,0,0.04938271604938272,42.320987654320994,0)" xlink:href="#aD"/><use transform="matrix(0.04938271604938272,0,0,0.04938271604938272,54.17283950617284,0)" xlink:href="#af"/><use transform="matrix(0.04938271604938272,0,0,0.04938271604938272,64.0493827160494,0)" xlink:href="#al"/><use transform="matrix(0.04938271604938272,0,0,0.04938271604938272,73.92592592592594,0)" xlink:href="#ad"/><use transform="matrix(0.04938271604938272,0,0,0.04938271604938272,77.82716049382718,0)" xlink:href="#ak"/><use transform="matrix(0.04938271604938272,0,0,0.04938271604938272,87.70370370370372,0)" xlink:href="#af"/><use transform="matrix(0.04938271604938272,0,0,0.04938271604938272,97.58024691358027,0)" xlink:href="#as"/><use transform="matrix(0.04938271604938272,0,0,0.04938271604938272,103.45679012345683,0)" xlink:href="#aq"/><use transform="matrix(0.04938271604938272,0,0,0.04938271604938272,113.33333333333337,0)" xlink:href="#aj"/><use transform="matrix(0.04938271604938272,0,0,0.04938271604938272,119.20987654320992,0)" xlink:href="#am"/><use transform="matrix(0.04938271604938272,0,0,0.04938271604938272,123.11111111111114,0)" xlink:href="#ag"/></g><g id="x"><use transform="matrix(0.04938271604938272,0,0,0.04938271604938272,0,0)" xlink:href="#au"/><use transform="matrix(0.04938271604938272,0,0,0.04938271604938272,8.88888888888889,0)" xlink:href="#an"/><use transform="matrix(0.04938271604938272,0,0,0.04938271604938272,18.765432098765434,0)" xlink:href="#ad"/><use transform="matrix(0.04938271604938272,0,0,0.04938271604938272,22.666666666666668,0)" xlink:href="#av"/></g><path fill="#3a414a" d="M190 0L58-211 59 0H30v-248h39L202-35l-2-213h31V0h-41" id="aE"/><g id="y"><use transform="matrix(0.04938271604938272,0,0,0.04938271604938272,0,0)" xlink:href="#af"/><use transform="matrix(0.04938271604938272,0,0,0.04938271604938272,9.876543209876544,0)" xlink:href="#av"/><use transform="matrix(0.04938271604938272,0,0,0.04938271604938272,19.75308641975309,0)" xlink:href="#ad"/><use transform="matrix(0.04938271604938272,0,0,0.04938271604938272,23.654320987654323,0)" xlink:href="#ae"/><use transform="matrix(0.04938271604938272,0,0,0.04938271604938272,32.543209876543216,0)" xlink:href="#ad"/><use transform="matrix(0.04938271604938272,0,0,0.04938271604938272,36.44444444444445,0)" xlink:href="#an"/><use transform="matrix(0.04938271604938272,0,0,0.04938271604938272,46.320987654320994,0)" xlink:href="#ak"/><use transform="matrix(0.04938271604938272,0,0,0.04938271604938272,56.19753086419754,0)" xlink:href="#af"/><use transform="matrix(0.04938271604938272,0,0,0.04938271604938272,66.07407407407408,0)" xlink:href="#aj"/><use transform="matrix(0.04938271604938272,0,0,0.04938271604938272,71.95061728395062,0)" xlink:href="#aE"/><use transform="matrix(0.04938271604938272,0,0,0.04938271604938272,84.74074074074075,0)" xlink:href="#an"/><use transform="matrix(0.04938271604938272,0,0,0.04938271604938272,94.61728395061729,0)" xlink:href="#au"/><use transform="matrix(0.04938271604938272,0,0,0.04938271604938272,103.50617283950618,0)" xlink:href="#af"/><use transform="matrix(0.04938271604938272,0,0,0.04938271604938272,113.38271604938272,0)" xlink:href="#ap"/><use transform="matrix(0.04938271604938272,0,0,0.04938271604938272,125.23456790123458,0)" xlink:href="#aC"/><use transform="matrix(0.04938271604938272,0,0,0.04938271604938272,135.11111111111111,0)" xlink:href="#af"/><use transform="matrix(0.04938271604938272,0,0,0.04938271604938272,144.98765432098764,0)" xlink:href="#as"/><use transform="matrix(0.04938271604938272,0,0,0.04938271604938272,150.86419753086417,0)" xlink:href="#at"/><use transform="matrix(0.04938271604938272,0,0,0.04938271604938272,156.7407407407407,0)" xlink:href="#ag"/></g><g id="z"><use transform="matrix(0.04938271604938272,0,0,0.04938271604938272,0,0)" xlink:href="#au"/><use transform="matrix(0.04938271604938272,0,0,0.04938271604938272,8.88888888888889,0)" xlink:href="#an"/><use transform="matrix(0.04938271604938272,0,0,0.04938271604938272,18.765432098765434,0)" xlink:href="#ad"/><use transform="matrix(0.04938271604938272,0,0,0.04938271604938272,22.666666666666668,0)" xlink:href="#av"/></g><g id="A"><use transform="matrix(0.04938271604938272,0,0,0.04938271604938272,0,0)" xlink:href="#af"/><use transform="matrix(0.04938271604938272,0,0,0.04938271604938272,9.876543209876544,0)" xlink:href="#ai"/><use transform="matrix(0.04938271604938272,0,0,0.04938271604938272,14.814814814814817,0)" xlink:href="#aq"/><use transform="matrix(0.04938271604938272,0,0,0.04938271604938272,24.69135802469136,0)" xlink:href="#af"/><use transform="matrix(0.04938271604938272,0,0,0.04938271604938272,34.567901234567906,0)" xlink:href="#am"/><use transform="matrix(0.04938271604938272,0,0,0.04938271604938272,38.46913580246914,0)" xlink:href="#ad"/><use transform="matrix(0.04938271604938272,0,0,0.04938271604938272,42.370370370370374,0)" xlink:href="#aA"/><use transform="matrix(0.04938271604938272,0,0,0.04938271604938272,51.25925925925927,0)" xlink:href="#af"/><use transform="matrix(0.04938271604938272,0,0,0.04938271604938272,61.13580246913581,0)" xlink:href="#aj"/><use transform="matrix(0.04938271604938272,0,0,0.04938271604938272,67.01234567901236,0)" xlink:href="#aD"/><use transform="matrix(0.04938271604938272,0,0,0.04938271604938272,78.8641975308642,0)" xlink:href="#af"/><use transform="matrix(0.04938271604938272,0,0,0.04938271604938272,88.74074074074075,0)" xlink:href="#al"/><use transform="matrix(0.04938271604938272,0,0,0.04938271604938272,98.61728395061729,0)" xlink:href="#ad"/><use transform="matrix(0.04938271604938272,0,0,0.04938271604938272,102.51851851851853,0)" xlink:href="#ak"/><use transform="matrix(0.04938271604938272,0,0,0.04938271604938272,112.39506172839508,0)" xlink:href="#af"/><use transform="matrix(0.04938271604938272,0,0,0.04938271604938272,122.27160493827162,0)" xlink:href="#as"/><use transform="matrix(0.04938271604938272,0,0,0.04938271604938272,128.14814814814815,0)" xlink:href="#at"/><use transform="matrix(0.04938271604938272,0,0,0.04938271604938272,134.02469135802468,0)" xlink:href="#ag"/></g><g id="B"><use transform="matrix(0.04938271604938272,0,0,0.04938271604938272,0,0)" xlink:href="#au"/><use transform="matrix(0.04938271604938272,0,0,0.04938271604938272,8.88888888888889,0)" xlink:href="#an"/><use transform="matrix(0.04938271604938272,0,0,0.04938271604938272,18.765432098765434,0)" xlink:href="#ad"/><use transform="matrix(0.04938271604938272,0,0,0.04938271604938272,22.666666666666668,0)" xlink:href="#av"/></g><path d="M15-91v-56l181-69v40L49-119l147 57v40" id="aF"/><path d="M25-224v-37h50v37H25zM25 0v-190h50V0H25" id="aG"/><path d="M135-194c87-1 58 113 63 194h-50c-7-57 23-157-34-157-59 0-34 97-39 157H25l-1-190h47c2 12-1 28 3 38 12-26 28-41 61-42" id="aH"/><path d="M115-3C79 11 28 4 28-45v-112H4v-33h27l15-45h31v45h36v33H77v99c-1 23 16 31 38 25v30" id="aI"/><path d="M185-48c-13 30-37 53-82 52C43 2 14-33 14-96s30-98 90-98c62 0 83 45 84 108H66c0 31 8 55 39 56 18 0 30-7 34-22zm-45-69c5-46-57-63-70-21-2 6-4 13-4 21h74" id="aJ"/><path d="M135-150c-39-12-60 13-60 57V0H25l-1-190h47c2 13-1 29 3 40 6-28 27-53 61-41v41" id="aK"/><path d="M121-226c-27-7-43 5-38 36h38v33H83V0H34v-157H6v-33h28c-9-59 32-81 87-68v32" id="aL"/><path d="M133-34C117-15 103 5 69 4 32 3 11-16 11-54c-1-60 55-63 116-61 1-26-3-47-28-47-18 1-26 9-28 27l-52-2c7-38 36-58 82-57s74 22 75 68l1 82c-1 14 12 18 25 15v27c-30 8-71 5-69-32zm-48 3c29 0 43-24 42-57-32 0-66-3-65 30 0 17 8 27 23 27" id="aM"/><path d="M190-63c-7 42-38 67-86 67-59 0-84-38-90-98-12-110 154-137 174-36l-49 2c-2-19-15-32-35-32-30 0-35 28-38 64-6 74 65 87 74 30" id="aN"/><path d="M15-22v-40l146-57-146-57v-40l181 69v56" id="aO"/><g id="C"><use transform="matrix(0.05,0,0,0.05,0,0)" xlink:href="#aF"/><use transform="matrix(0.05,0,0,0.05,10.5,0)" xlink:href="#aF"/><use transform="matrix(0.05,0,0,0.05,21,0)" xlink:href="#aG"/><use transform="matrix(0.05,0,0,0.05,26,0)" xlink:href="#aH"/><use transform="matrix(0.05,0,0,0.05,36.95,0)" xlink:href="#aI"/><use transform="matrix(0.05,0,0,0.05,42.900000000000006,0)" xlink:href="#aJ"/><use transform="matrix(0.05,0,0,0.05,52.900000000000006,0)" xlink:href="#aK"/><use transform="matrix(0.05,0,0,0.05,59.900000000000006,0)" xlink:href="#aL"/><use transform="matrix(0.05,0,0,0.05,65.85000000000001,0)" xlink:href="#aM"/><use transform="matrix(0.05,0,0,0.05,75.85000000000001,0)" xlink:href="#aN"/><use transform="matrix(0.05,0,0,0.05,85.85000000000001,0)" xlink:href="#aJ"/><use transform="matrix(0.05,0,0,0.05,95.85000000000001,0)" xlink:href="#aO"/><use transform="matrix(0.05,0,0,0.05,106.35000000000001,0)" xlink:href="#aO"/></g><path d="M233-177c-1 41-23 64-60 70L243 0h-38l-65-103H63V0H30v-248c88 3 205-21 203 71zM63-129c60-2 137 13 137-47 0-61-80-42-137-45v92" id="aP"/><path d="M115-194c55 1 70 41 70 98S169 2 115 4C84 4 66-9 55-30l1 105H24l-1-265h31l2 30c10-21 28-34 59-34zm-8 174c40 0 45-34 45-75s-6-73-45-74c-42 0-51 32-51 76 0 43 10 73 51 73" id="aQ"/><path d="M114-163C36-179 61-72 57 0H25l-1-190h30c1 12-1 29 2 39 6-27 23-49 58-41v29" id="aR"/><path d="M85-194c31 0 48 13 60 33l-1-100h32l1 261h-30c-2-10 0-23-3-31C134-8 116 4 85 4 32 4 16-35 15-94c0-66 23-100 70-100zm9 24c-40 0-46 34-46 75 0 40 6 74 45 74 42 0 51-32 51-76 0-42-9-74-50-73" id="aS"/><path d="M84 4C-5 8 30-112 23-190h32v120c0 31 7 50 39 49 72-2 45-101 50-169h31l1 190h-30c-1-10 1-25-2-33-11 22-28 36-60 37" id="aT"/><path d="M59-47c-2 24 18 29 38 22v24C64 9 27 4 27-40v-127H5v-23h24l9-43h21v43h35v23H59v120" id="aU"/><path d="M240 0l2-218c-23 76-54 145-80 218h-23L58-218 59 0H30v-248h44l77 211c21-75 51-140 76-211h43V0h-30" id="aV"/><path d="M135-143c-3-34-86-38-87 0 15 53 115 12 119 90S17 21 10-45l28-5c4 36 97 45 98 0-10-56-113-15-118-90-4-57 82-63 122-42 12 7 21 19 24 35" id="aW"/><path d="M96-169c-40 0-48 33-48 73s9 75 48 75c24 0 41-14 43-38l32 2c-6 37-31 61-74 61-59 0-76-41-82-99-10-93 101-131 147-64 4 7 5 14 7 22l-32 3c-4-21-16-35-41-35" id="aX"/><path d="M141-36C126-15 110 5 73 4 37 3 15-17 15-53c-1-64 63-63 125-63 3-35-9-54-41-54-24 1-41 7-42 31l-33-3c5-37 33-52 76-52 45 0 72 20 72 64v82c-1 20 7 32 28 27v20c-31 9-61-2-59-35zM48-53c0 20 12 33 32 33 41-3 63-29 60-74-43 2-92-5-92 41" id="aY"/><path d="M24 0v-261h32V0H24" id="aZ"/><g id="D"><use transform="matrix(0.048148148148148155,0,0,0.048148148148148155,0,0)" xlink:href="#aP"/><use transform="matrix(0.048148148148148155,0,0,0.048148148148148155,12.470370370370372,0)" xlink:href="#Y"/><use transform="matrix(0.048148148148148155,0,0,0.048148148148148155,22.1,0)" xlink:href="#aQ"/><use transform="matrix(0.048148148148148155,0,0,0.048148148148148155,31.729629629629635,0)" xlink:href="#aR"/><use transform="matrix(0.048148148148148155,0,0,0.048148148148148155,37.45925925925926,0)" xlink:href="#W"/><use transform="matrix(0.048148148148148155,0,0,0.048148148148148155,47.088888888888896,0)" xlink:href="#aS"/><use transform="matrix(0.048148148148148155,0,0,0.048148148148148155,56.71851851851853,0)" xlink:href="#aT"/><use transform="matrix(0.048148148148148155,0,0,0.048148148148148155,66.34814814814816,0)" xlink:href="#aU"/><use transform="matrix(0.048148148148148155,0,0,0.048148148148148155,71.16296296296296,0)" xlink:href="#W"/><use transform="matrix(0.048148148148148155,0,0,0.048148148148148155,80.7925925925926,0)" xlink:href="#aR"/><use transform="matrix(0.048148148148148155,0,0,0.048148148148148155,86.52222222222223,0)" xlink:href="#aV"/><use transform="matrix(0.048148148148148155,0,0,0.048148148148148155,100.91851851851854,0)" xlink:href="#aT"/><use transform="matrix(0.048148148148148155,0,0,0.048148148148148155,110.54814814814816,0)" xlink:href="#aW"/><use transform="matrix(0.048148148148148155,0,0,0.048148148148148155,119.21481481481483,0)" xlink:href="#T"/><use transform="matrix(0.048148148148148155,0,0,0.048148148148148155,123.01851851851853,0)" xlink:href="#aX"/><use transform="matrix(0.048148148148148155,0,0,0.048148148148148155,131.6851851851852,0)" xlink:href="#aY"/><use transform="matrix(0.048148148148148155,0,0,0.048148148148148155,141.3148148148148,0)" xlink:href="#aZ"/></g><path d="M118-107v75H92v-75H18v-26h74v-75h26v75h74v26h-74" id="ba"/><use transform="matrix(0.048148148148148155,0,0,0.048148148148148155,0,0)" xlink:href="#ba" id="E"/><path d="M87 75C49 33 22-17 22-94c0-76 28-126 65-167h31c-38 41-64 92-64 168S80 34 118 75H87" id="bb"/><path d="M33-261c38 41 65 92 65 168S71 34 33 75H2C39 34 66-17 66-93S39-220 2-261h31" id="bc"/><path d="M33-154v-36h34v36H33zM33 0v-36h34V0H33" id="bd"/><g id="F"><use transform="matrix(0.048148148148148155,0,0,0.048148148148148155,0,0)" xlink:href="#aU"/><use transform="matrix(0.048148148148148155,0,0,0.048148148148148155,4.814814814814816,0)" xlink:href="#W"/><use transform="matrix(0.048148148148148155,0,0,0.048148148148148155,14.444444444444446,0)" xlink:href="#aX"/><use transform="matrix(0.048148148148148155,0,0,0.048148148148148155,23.111111111111114,0)" xlink:href="#aY"/><use transform="matrix(0.048148148148148155,0,0,0.048148148148148155,32.74074074074075,0)" xlink:href="#aR"/><use transform="matrix(0.048148148148148155,0,0,0.048148148148148155,38.470370370370375,0)" xlink:href="#bb"/><use transform="matrix(0.048148148148148155,0,0,0.048148148148148155,44.2,0)" xlink:href="#bc"/><use transform="matrix(0.048148148148148155,0,0,0.048148148148148155,49.92962962962962,0)" xlink:href="#bd"/></g><path d="M108 0H70L1-190h34L89-25l56-165h34" id="be"/><g id="G"><use transform="matrix(0.048148148148148155,0,0,0.048148148148148155,0,0)" xlink:href="#be"/><use transform="matrix(0.048148148148148155,0,0,0.048148148148148155,8.666666666666668,0)" xlink:href="#W"/><use transform="matrix(0.048148148148148155,0,0,0.048148148148148155,18.296296296296298,0)" xlink:href="#T"/><use transform="matrix(0.048148148148148155,0,0,0.048148148148148155,22.1,0)" xlink:href="#aS"/></g><g id="H"><use transform="matrix(0.048148148148148155,0,0,0.048148148148148155,0,0)" xlink:href="#aQ"/><use transform="matrix(0.048148148148148155,0,0,0.048148148148148155,9.629629629629632,0)" xlink:href="#aY"/><use transform="matrix(0.048148148148148155,0,0,0.048148148148148155,19.259259259259263,0)" xlink:href="#aT"/><use transform="matrix(0.048148148148148155,0,0,0.048148148148148155,28.888888888888893,0)" xlink:href="#aW"/><use transform="matrix(0.048148148148148155,0,0,0.048148148148148155,37.55555555555556,0)" xlink:href="#aY"/><use transform="matrix(0.048148148148148155,0,0,0.048148148148148155,47.18518518518519,0)" xlink:href="#aR"/><use transform="matrix(0.048148148148148155,0,0,0.048148148148148155,52.914814814814825,0)" xlink:href="#bb"/><use transform="matrix(0.048148148148148155,0,0,0.048148148148148155,58.64444444444444,0)" xlink:href="#bc"/><use transform="matrix(0.048148148148148155,0,0,0.048148148148148155,64.37407407407407,0)" xlink:href="#bd"/></g><path d="M210-169c-67 3-38 105-44 169h-31v-121c0-29-5-50-35-48C34-165 62-65 56 0H25l-1-190h30c1 10-1 24 2 32 10-44 99-50 107 0 11-21 27-35 58-36 85-2 47 119 55 194h-31v-121c0-29-5-49-35-48" id="bf"/><g id="I"><use transform="matrix(0.048148148148148155,0,0,0.048148148148148155,0,0)" xlink:href="#aW"/><use transform="matrix(0.048148148148148155,0,0,0.048148148148148155,8.666666666666668,0)" xlink:href="#Y"/><use transform="matrix(0.048148148148148155,0,0,0.048148148148148155,18.296296296296298,0)" xlink:href="#aZ"/><use transform="matrix(0.048148148148148155,0,0,0.048148148148148155,22.1,0)" xlink:href="#Y"/><use transform="matrix(0.048148148148148155,0,0,0.048148148148148155,31.729629629629635,0)" xlink:href="#aX"/><use transform="matrix(0.048148148148148155,0,0,0.048148148148148155,40.3962962962963,0)" xlink:href="#T"/><use transform="matrix(0.048148148148148155,0,0,0.048148148148148155,44.2,0)" xlink:href="#W"/><use transform="matrix(0.048148148148148155,0,0,0.048148148148148155,53.829629629629636,0)" xlink:href="#X"/><use transform="matrix(0.048148148148148155,0,0,0.048148148148148155,63.45925925925927,0)" xlink:href="#aY"/><use transform="matrix(0.048148148148148155,0,0,0.048148148148148155,73.0888888888889,0)" xlink:href="#aR"/><use transform="matrix(0.048148148148148155,0,0,0.048148148148148155,78.81851851851853,0)" xlink:href="#aV"/><use transform="matrix(0.048148148148148155,0,0,0.048148148148148155,93.21481481481483,0)" xlink:href="#aT"/><use transform="matrix(0.048148148148148155,0,0,0.048148148148148155,102.84444444444446,0)" xlink:href="#aW"/><use transform="matrix(0.048148148148148155,0,0,0.048148148148148155,111.51111111111113,0)" xlink:href="#T"/><use transform="matrix(0.048148148148148155,0,0,0.048148148148148155,115.31481481481484,0)" xlink:href="#aX"/><use transform="matrix(0.048148148148148155,0,0,0.048148148148148155,123.9814814814815,0)" xlink:href="#aY"/><use transform="matrix(0.048148148148148155,0,0,0.048148148148148155,133.61111111111114,0)" xlink:href="#bb"/><use transform="matrix(0.048148148148148155,0,0,0.048148148148148155,139.34074074074078,0)" xlink:href="#bf"/><use transform="matrix(0.048148148148148155,0,0,0.048148148148148155,153.73703703703708,0)" xlink:href="#aT"/><use transform="matrix(0.048148148148148155,0,0,0.048148148148148155,163.3666666666667,0)" xlink:href="#aW"/><use transform="matrix(0.048148148148148155,0,0,0.048148148148148155,172.03333333333336,0)" xlink:href="#T"/><use transform="matrix(0.048148148148148155,0,0,0.048148148148148155,175.83703703703708,0)" xlink:href="#aX"/><use transform="matrix(0.048148148148148155,0,0,0.048148148148148155,184.50370370370374,0)" xlink:href="#aY"/><use transform="matrix(0.048148148148148155,0,0,0.048148148148148155,194.13333333333335,0)" xlink:href="#bd"/></g><path d="M185-189c-5-48-123-54-124 2 14 75 158 14 163 119 3 78-121 87-175 55-17-10-28-26-33-46l33-7c5 56 141 63 141-1 0-78-155-14-162-118-5-82 145-84 179-34 5 7 8 16 11 25" id="bg"/><path d="M177-190C167-65 218 103 67 71c-23-6-38-20-44-43l32-5c15 47 100 32 89-28v-30C133-14 115 1 83 1 29 1 15-40 15-95c0-56 16-97 71-98 29-1 48 16 59 35 1-10 0-23 2-32h30zM94-22c36 0 50-32 50-73 0-42-14-75-50-75-39 0-46 34-46 75s6 73 46 73" id="bh"/><g id="J"><use transform="matrix(0.048148148148148155,0,0,0.048148148148148155,0,0)" xlink:href="#bg"/><use transform="matrix(0.048148148148148155,0,0,0.048148148148148155,11.555555555555557,0)" xlink:href="#aU"/><use transform="matrix(0.048148148148148155,0,0,0.048148148148148155,16.370370370370374,0)" xlink:href="#aR"/><use transform="matrix(0.048148148148148155,0,0,0.048148148148148155,22.100000000000005,0)" xlink:href="#T"/><use transform="matrix(0.048148148148148155,0,0,0.048148148148148155,25.90370370370371,0)" xlink:href="#X"/><use transform="matrix(0.048148148148148155,0,0,0.048148148148148155,35.53333333333334,0)" xlink:href="#bh"/><use transform="matrix(0.048148148148148155,0,0,0.048148148148148155,45.16296296296297,0)" xlink:href="#bc"/><use transform="matrix(0.048148148148148155,0,0,0.048148148148148155,50.8925925925926,0)" xlink:href="#bd"/></g><g id="K"><use transform="matrix(0.048148148148148155,0,0,0.048148148148148155,0,0)" xlink:href="#be"/><use transform="matrix(0.048148148148148155,0,0,0.048148148148148155,8.666666666666668,0)" xlink:href="#W"/><use transform="matrix(0.048148148148148155,0,0,0.048148148148148155,18.296296296296298,0)" xlink:href="#T"/><use transform="matrix(0.048148148148148155,0,0,0.048148148148148155,22.1,0)" xlink:href="#aS"/></g><path d="M205 0l-28-72H64L36 0H1l101-248h38L239 0h-34zm-38-99l-47-123c-12 45-31 82-46 123h93" id="bi"/><path d="M127-220V0H93v-220H8v-28h204v28h-85" id="bj"/><path d="M101-234c-31-9-42 10-38 44h38v23H63V0H32v-167H5v-23h27c-7-52 17-82 69-68v24" id="bk"/><g id="L"><use transform="matrix(0.048148148148148155,0,0,0.048148148148148155,0,0)" xlink:href="#bi"/><use transform="matrix(0.048148148148148155,0,0,0.048148148148148155,11.555555555555557,0)" xlink:href="#aQ"/><use transform="matrix(0.048148148148148155,0,0,0.048148148148148155,21.18518518518519,0)" xlink:href="#aY"/><use transform="matrix(0.048148148148148155,0,0,0.048148148148148155,30.814814814814824,0)" xlink:href="#aR"/><use transform="matrix(0.048148148148148155,0,0,0.048148148148148155,36.54444444444445,0)" xlink:href="#Y"/><use transform="matrix(0.048148148148148155,0,0,0.048148148148148155,46.174074074074085,0)" xlink:href="#aZ"/><use transform="matrix(0.048148148148148155,0,0,0.048148148148148155,49.97777777777779,0)" xlink:href="#V"/><use transform="matrix(0.048148148148148155,0,0,0.048148148148148155,59.60740740740743,0)" xlink:href="#W"/><use transform="matrix(0.048148148148148155,0,0,0.048148148148148155,69.23703703703706,0)" xlink:href="#bj"/><use transform="matrix(0.048148148148148155,0,0,0.048148148148148155,77.85555555555558,0)" xlink:href="#Y"/><use transform="matrix(0.048148148148148155,0,0,0.048148148148148155,87.48518518518522,0)" xlink:href="#aZ"/><use transform="matrix(0.048148148148148155,0,0,0.048148148148148155,91.28888888888892,0)" xlink:href="#Y"/><use transform="matrix(0.048148148148148155,0,0,0.048148148148148155,100.91851851851855,0)" xlink:href="#bk"/><use transform="matrix(0.048148148148148155,0,0,0.048148148148148155,105.73333333333338,0)" xlink:href="#W"/><use transform="matrix(0.048148148148148155,0,0,0.048148148148148155,115.362962962963,0)" xlink:href="#X"/><use transform="matrix(0.048148148148148155,0,0,0.048148148148148155,124.99259259259263,0)" xlink:href="#T"/><use transform="matrix(0.048148148148148155,0,0,0.048148148148148155,128.79629629629633,0)" xlink:href="#aX"/><use transform="matrix(0.048148148148148155,0,0,0.048148148148148155,137.462962962963,0)" xlink:href="#W"/></g><g id="M"><use transform="matrix(0.048148148148148155,0,0,0.048148148148148155,0,0)" xlink:href="#aZ"/><use transform="matrix(0.048148148148148155,0,0,0.048148148148148155,3.8037037037037043,0)" xlink:href="#T"/><use transform="matrix(0.048148148148148155,0,0,0.048148148148148155,7.6074074074074085,0)" xlink:href="#bh"/><use transform="matrix(0.048148148148148155,0,0,0.048148148148148155,17.23703703703704,0)" xlink:href="#aY"/><use transform="matrix(0.048148148148148155,0,0,0.048148148148148155,26.866666666666678,0)" xlink:href="#aR"/><use transform="matrix(0.048148148148148155,0,0,0.048148148148148155,32.5962962962963,0)" xlink:href="#bb"/><use transform="matrix(0.048148148148148155,0,0,0.048148148148148155,38.32592592592593,0)" xlink:href="#X"/><use transform="matrix(0.048148148148148155,0,0,0.048148148148148155,47.95555555555556,0)" xlink:href="#aT"/><use transform="matrix(0.048148148148148155,0,0,0.048148148148148155,57.585185185185196,0)" xlink:href="#bf"/><use transform="matrix(0.048148148148148155,0,0,0.048148148148148155,71.9814814814815,0)" xlink:href="#Y"/><use transform="matrix(0.048148148148148155,0,0,0.048148148148148155,81.61111111111113,0)" xlink:href="#aR"/><use transform="matrix(0.048148148148148155,0,0,0.048148148148148155,87.34074074074076,0)" xlink:href="#W"/><use transform="matrix(0.048148148148148155,0,0,0.048148148148148155,96.97037037037039,0)" xlink:href="#bd"/></g><g id="N"><use transform="matrix(0.048148148148148155,0,0,0.048148148148148155,0,0)" xlink:href="#aY"/><use transform="matrix(0.048148148148148155,0,0,0.048148148148148155,9.629629629629632,0)" xlink:href="#aU"/><use transform="matrix(0.048148148148148155,0,0,0.048148148148148155,14.444444444444446,0)" xlink:href="#Y"/><use transform="matrix(0.048148148148148155,0,0,0.048148148148148155,24.074074074074076,0)" xlink:href="#X"/><use transform="matrix(0.048148148148148155,0,0,0.048148148148148155,33.70370370370371,0)" xlink:href="#aS"/><use transform="matrix(0.048148148148148155,0,0,0.048148148148148155,43.33333333333334,0)" xlink:href="#Y"/><use transform="matrix(0.048148148148148155,0,0,0.048148148148148155,52.96296296296297,0)" xlink:href="#aR"/><use transform="matrix(0.048148148148148155,0,0,0.048148148148148155,58.692592592592604,0)" xlink:href="#bb"/><use transform="matrix(0.048148148148148155,0,0,0.048148148148148155,64.42222222222223,0)" xlink:href="#bc"/><use transform="matrix(0.048148148148148155,0,0,0.048148148148148155,70.15185185185186,0)" xlink:href="#bd"/></g><path d="M212-179c-10-28-35-45-73-45-59 0-87 40-87 99 0 60 29 101 89 101 43 0 62-24 78-52l27 14C228-24 195 4 139 4 59 4 22-46 18-125c-6-104 99-153 187-111 19 9 31 26 39 46" id="bl"/><path d="M137 0h-34L2-248h35l83 218 83-218h36" id="bm"/><path d="M9 0v-24l116-142H16v-24h144v24L44-24h123V0H9" id="bn"/><g id="O"><use transform="matrix(0.048148148148148155,0,0,0.048148148148148155,0,0)" xlink:href="#T"/><use transform="matrix(0.048148148148148155,0,0,0.048148148148148155,3.8037037037037043,0)" xlink:href="#X"/><use transform="matrix(0.048148148148148155,0,0,0.048148148148148155,13.433333333333335,0)" xlink:href="#T"/><use transform="matrix(0.048148148148148155,0,0,0.048148148148148155,17.23703703703704,0)" xlink:href="#aX"/><use transform="matrix(0.048148148148148155,0,0,0.048148148148148155,25.90370370370371,0)" xlink:href="#T"/><use transform="matrix(0.048148148148148155,0,0,0.048148148148148155,29.707407407407413,0)" xlink:href="#aY"/><use transform="matrix(0.048148148148148155,0,0,0.048148148148148155,39.33703703703704,0)" xlink:href="#aR"/><use transform="matrix(0.048148148148148155,0,0,0.048148148148148155,45.06666666666667,0)" xlink:href="#bl"/><use transform="matrix(0.048148148148148155,0,0,0.048148148148148155,57.53703703703703,0)" xlink:href="#W"/><use transform="matrix(0.048148148148148155,0,0,0.048148148148148155,67.16666666666667,0)" xlink:href="#aR"/><use transform="matrix(0.048148148148148155,0,0,0.048148148148148155,72.8962962962963,0)" xlink:href="#aR"/><use transform="matrix(0.048148148148148155,0,0,0.048148148148148155,78.62592592592593,0)" xlink:href="#Y"/><use transform="matrix(0.048148148148148155,0,0,0.048148148148148155,88.25555555555556,0)" xlink:href="#T"/><use transform="matrix(0.048148148148148155,0,0,0.048148148148148155,92.05925925925926,0)" xlink:href="#W"/><use transform="matrix(0.048148148148148155,0,0,0.048148148148148155,101.6888888888889,0)" xlink:href="#bm"/><use transform="matrix(0.048148148148148155,0,0,0.048148148148148155,112.28148148148149,0)" xlink:href="#W"/><use transform="matrix(0.048148148148148155,0,0,0.048148148148148155,121.91111111111113,0)" xlink:href="#bn"/><use transform="matrix(0.048148148148148155,0,0,0.048148148148148155,130.57777777777778,0)" xlink:href="#bb"/><use transform="matrix(0.048148148148148155,0,0,0.048148148148148155,136.30740740740742,0)" xlink:href="#bc"/><use transform="matrix(0.048148148148148155,0,0,0.048148148148148155,142.03703703703707,0)" xlink:href="#bd"/></g><path d="M190 0L58-211 59 0H30v-248h39L202-35l-2-213h31V0h-41" id="bo"/><path d="M33 0v-248h34V0H33" id="bp"/><g id="P"><use transform="matrix(0.048148148148148155,0,0,0.048148148148148155,0,0)" xlink:href="#bo"/><use transform="matrix(0.048148148148148155,0,0,0.048148148148148155,12.470370370370372,0)" xlink:href="#aY"/><use transform="matrix(0.048148148148148155,0,0,0.048148148148148155,22.1,0)" xlink:href="#be"/><use transform="matrix(0.048148148148148155,0,0,0.048148148148148155,30.766666666666673,0)" xlink:href="#Y"/><use transform="matrix(0.048148148148148155,0,0,0.048148148148148155,40.3962962962963,0)" xlink:href="#bh"/><use transform="matrix(0.048148148148148155,0,0,0.048148148148148155,50.02592592592593,0)" xlink:href="#aY"/><use transform="matrix(0.048148148148148155,0,0,0.048148148148148155,59.655555555555566,0)" xlink:href="#aS"/><use transform="matrix(0.048148148148148155,0,0,0.048148148148148155,69.2851851851852,0)" xlink:href="#W"/><use transform="matrix(0.048148148148148155,0,0,0.048148148148148155,78.91481481481483,0)" xlink:href="#aR"/><use transform="matrix(0.048148148148148155,0,0,0.048148148148148155,84.64444444444446,0)" xlink:href="#bp"/><use transform="matrix(0.048148148148148155,0,0,0.048148148148148155,89.45925925925927,0)" xlink:href="#X"/><use transform="matrix(0.048148148148148155,0,0,0.048148148148148155,99.0888888888889,0)" xlink:href="#aU"/><use transform="matrix(0.048148148148148155,0,0,0.048148148148148155,103.90370370370371,0)" xlink:href="#Y"/><use transform="matrix(0.048148148148148155,0,0,0.048148148148148155,113.53333333333335,0)" xlink:href="#aR"/><use transform="matrix(0.048148148148148155,0,0,0.048148148148148155,119.26296296296299,0)" xlink:href="#X"/><use transform="matrix(0.048148148148148155,0,0,0.048148148148148155,128.8925925925926,0)" xlink:href="#Y"/><use transform="matrix(0.048148148148148155,0,0,0.048148148148148155,138.5222222222222,0)" xlink:href="#aU"/></g><path d="M141 0L90-78 38 0H4l68-98-65-92h35l48 74 47-74h35l-64 92 68 98h-35" id="bq"/><path d="M115-194c53 0 69 39 70 98 0 66-23 100-70 100C84 3 66-7 56-30L54 0H23l1-261h32v101c10-23 28-34 59-34zm-8 174c40 0 45-34 45-75 0-40-5-75-45-74-42 0-51 32-51 76 0 43 10 73 51 73" id="br"/><g id="Q"><use transform="matrix(0.048148148148148155,0,0,0.048148148148148155,0,0)" xlink:href="#Y"/><use transform="matrix(0.048148148148148155,0,0,0.048148148148148155,9.629629629629632,0)" xlink:href="#bq"/><use transform="matrix(0.048148148148148155,0,0,0.048148148148148155,18.296296296296298,0)" xlink:href="#T"/><use transform="matrix(0.048148148148148155,0,0,0.048148148148148155,22.1,0)" xlink:href="#br"/><use transform="matrix(0.048148148148148155,0,0,0.048148148148148155,31.729629629629635,0)" xlink:href="#T"/><use transform="matrix(0.048148148148148155,0,0,0.048148148148148155,35.53333333333334,0)" xlink:href="#aR"/><use transform="matrix(0.048148148148148155,0,0,0.048148148148148155,41.262962962962966,0)" xlink:href="#U"/><use transform="matrix(0.048148148148148155,0,0,0.048148148148148155,52.81851851851852,0)" xlink:href="#aY"/><use transform="matrix(0.048148148148148155,0,0,0.048148148148148155,62.44814814814816,0)" xlink:href="#bh"/><use transform="matrix(0.048148148148148155,0,0,0.048148148148148155,72.07777777777778,0)" xlink:href="#T"/><use transform="matrix(0.048148148148148155,0,0,0.048148148148148155,75.88148148148149,0)" xlink:href="#X"/><use transform="matrix(0.048148148148148155,0,0,0.048148148148148155,85.51111111111112,0)" xlink:href="#aY"/><use transform="matrix(0.048148148148148155,0,0,0.048148148148148155,95.14074074074075,0)" xlink:href="#bb"/><use transform="matrix(0.048148148148148155,0,0,0.048148148148148155,100.87037037037038,0)" xlink:href="#aT"/><use transform="matrix(0.048148148148148155,0,0,0.048148148148148155,110.50000000000001,0)" xlink:href="#aR"/><use transform="matrix(0.048148148148148155,0,0,0.048148148148148155,116.22962962962964,0)" xlink:href="#aZ"/><use transform="matrix(0.048148148148148155,0,0,0.048148148148148155,120.03333333333335,0)" xlink:href="#bd"/></g><g id="R"><use transform="matrix(0.048148148148148155,0,0,0.048148148148148155,0,0)" xlink:href="#aY"/><use transform="matrix(0.048148148148148155,0,0,0.048148148148148155,9.629629629629632,0)" xlink:href="#aS"/><use transform="matrix(0.048148148148148155,0,0,0.048148148148148155,19.259259259259263,0)" xlink:href="#T"/><use transform="matrix(0.048148148148148155,0,0,0.048148148148148155,23.062962962962967,0)" xlink:href="#aX"/><use transform="matrix(0.048148148148148155,0,0,0.048148148148148155,31.729629629629635,0)" xlink:href="#T"/><use transform="matrix(0.048148148148148155,0,0,0.048148148148148155,35.53333333333334,0)" xlink:href="#W"/><use transform="matrix(0.048148148148148155,0,0,0.048148148148148155,45.16296296296297,0)" xlink:href="#X"/><use transform="matrix(0.048148148148148155,0,0,0.048148148148148155,54.7925925925926,0)" xlink:href="#aY"/><use transform="matrix(0.048148148148148155,0,0,0.048148148148148155,64.42222222222223,0)" xlink:href="#aR"/><use transform="matrix(0.048148148148148155,0,0,0.048148148148148155,70.15185185185186,0)" xlink:href="#bo"/><use transform="matrix(0.048148148148148155,0,0,0.048148148148148155,82.62222222222223,0)" xlink:href="#W"/><use transform="matrix(0.048148148148148155,0,0,0.048148148148148155,92.25185185185187,0)" xlink:href="#be"/><use transform="matrix(0.048148148148148155,0,0,0.048148148148148155,100.91851851851854,0)" xlink:href="#aY"/><use transform="matrix(0.048148148148148155,0,0,0.048148148148148155,110.54814814814816,0)" xlink:href="#bi"/><use transform="matrix(0.048148148148148155,0,0,0.048148148148148155,122.10370370370372,0)" xlink:href="#br"/><use transform="matrix(0.048148148148148155,0,0,0.048148148148148155,131.73333333333335,0)" xlink:href="#aY"/><use transform="matrix(0.048148148148148155,0,0,0.048148148148148155,141.36296296296297,0)" xlink:href="#bb"/><use transform="matrix(0.048148148148148155,0,0,0.048148148148148155,147.0925925925926,0)" xlink:href="#bc"/><use transform="matrix(0.048148148148148155,0,0,0.048148148148148155,152.82222222222225,0)" xlink:href="#bd"/></g><g id="S"><use transform="matrix(0.048148148148148155,0,0,0.048148148148148155,0,0)" xlink:href="#aY"/><use transform="matrix(0.048148148148148155,0,0,0.048148148148148155,9.629629629629632,0)" xlink:href="#aU"/><use transform="matrix(0.048148148148148155,0,0,0.048148148148148155,14.444444444444446,0)" xlink:href="#aT"/><use transform="matrix(0.048148148148148155,0,0,0.048148148148148155,24.074074074074076,0)" xlink:href="#aY"/><use transform="matrix(0.048148148148148155,0,0,0.048148148148148155,33.70370370370371,0)" xlink:href="#aZ"/><use transform="matrix(0.048148148148148155,0,0,0.048148148148148155,37.50740740740741,0)" xlink:href="#T"/><use transform="matrix(0.048148148148148155,0,0,0.048148148148148155,41.31111111111112,0)" xlink:href="#bn"/><use transform="matrix(0.048148148148148155,0,0,0.048148148148148155,49.97777777777779,0)" xlink:href="#aY"/><use transform="matrix(0.048148148148148155,0,0,0.048148148148148155,59.60740740740743,0)" xlink:href="#aR"/><use transform="matrix(0.048148148148148155,0,0,0.048148148148148155,65.33703703703705,0)" xlink:href="#U"/><use transform="matrix(0.048148148148148155,0,0,0.048148148148148155,76.8925925925926,0)" xlink:href="#aY"/><use transform="matrix(0.048148148148148155,0,0,0.048148148148148155,86.52222222222224,0)" xlink:href="#bh"/><use transform="matrix(0.048148148148148155,0,0,0.048148148148148155,96.15185185185187,0)" xlink:href="#T"/><use transform="matrix(0.048148148148148155,0,0,0.048148148148148155,99.95555555555558,0)" xlink:href="#X"/><use transform="matrix(0.048148148148148155,0,0,0.048148148148148155,109.5851851851852,0)" xlink:href="#aY"/><use transform="matrix(0.048148148148148155,0,0,0.048148148148148155,119.21481481481486,0)" xlink:href="#bb"/><use transform="matrix(0.048148148148148155,0,0,0.048148148148148155,124.94444444444446,0)" xlink:href="#bc"/><use transform="matrix(0.048148148148148155,0,0,0.048148148148148155,130.6740740740741,0)" xlink:href="#bd"/></g></defs></g></svg>